# xmcd
#
# Track frame offsets: 
#        150
#        14537
#        27647
#        51378
#        73295
#        89163
#        104635
#
# Disc length: 1694 seconds
#
# Revision: 0
# Processed by: cddbd v1.5.2PL0 Copyright (c) Steve Scherf et al.
# Submitted via: ExactAudioCopyFreeDBPlugin 1.0
#
DISCID=6e069c07
DTITLE=Hoosier Highway - Long Nights and Long Necks
DYEAR=1900
DGENRE=Country and Folk
TTITLE0=Long Nights and Long Necks
TTITLE1=Drivin
TTITLE2=Under The Moonlight
TTITLE3=My Heart Tells Me
TTITLE4=Nothin But A Memory
TTITLE5=Let Your Love Rain Down On Me
TTITLE6=What Makes a Right Man Go Wrong
EXTD=
EXTT0=
EXTT1=
EXTT2=
EXTT3=
EXTT4=
EXTT5=
EXTT6=
PLAYORDER=
